<?xml version="1.0" standalone="no"?>
<!DOCTYPE svg PUBLIC "-//W3C//DTD SVG 20010904//EN"
 "http://www.w3.org/TR/2001/REC-SVG-20010904/DTD/svg10.dtd">
<svg version="1.0" xmlns="http://www.w3.org/2000/svg"
 width="2000.000000pt" height="2000.000000pt" viewBox="0 0 2000.000000 2000.000000"
 preserveAspectRatio="xMidYMid meet">

<g transform="translate(0.000000,2000.000000) scale(0.100000,-0.100000)"
fill="#000000" stroke="none">
<path d="M12920 17746 c7 -7 13 -7 20 0 6 6 3 10 -10 10 -13 0 -16 -4 -10 -10z"/>
<path d="M15781 17664 c0 -11 3 -14 6 -6 3 7 2 16 -1 19 -3 4 -6 -2 -5 -13z"/>
<path d="M5980 17606 c0 -2 8 -10 18 -17 15 -13 16 -12 3 4 -13 16 -21 21 -21
13z"/>
<path d="M15492 17590 c0 -14 2 -19 5 -12 2 6 2 18 0 25 -3 6 -5 1 -5 -13z"/>
<path d="M6037 17560 c19 -20 25 -22 35 -11 11 11 10 13 0 6 -8 -4 -23 1 -35
11 -22 18 -22 18 0 -6z"/>
<path d="M13080 17566 c0 -2 8 -10 18 -17 15 -13 16 -12 3 4 -13 16 -21 21
-21 13z"/>
<path d="M6487 17543 c-14 -13 -6 -24 15 -21 27 4 36 28 11 28 -11 0 -23 -3
-26 -7z"/>
<path d="M6137 17533 c-4 -3 -1 -13 6 -21 8 -11 8 -14 0 -9 -22 14 -23 -10 0
-29 18 -16 19 -16 8 -1 -7 9 -9 17 -3 17 5 0 10 11 10 25 0 25 -8 31 -21 18z"/>
<path d="M6560 17505 c0 -13 -23 -15 -160 -15 -100 0 -160 -4 -160 -10 0 -5
-7 -10 -15 -10 -8 0 -15 4 -15 8 0 5 -7 9 -15 9 -8 0 -12 -4 -9 -9 3 -4 0 -8
-7 -8 -7 0 3 -16 21 -35 19 -20 35 -42 35 -49 0 -7 16 -26 35 -42 19 -16 31
-24 27 -18 -4 7 1 18 10 25 14 12 16 12 8 -1 -20 -33 -7 -89 18 -73 5 3 7 2 4
-4 -7 -11 36 -56 45 -47 3 3 5 -3 5 -13 -1 -9 4 -18 12 -18 8 0 16 -7 18 -15
4 -13 3 -13 -6 0 -6 8 -11 10 -11 4 0 -6 6 -17 14 -23 11 -9 15 -9 19 1 3 7 5
4 4 -7 -1 -26 73 -136 86 -128 5 3 7 1 4 -5 -4 -5 12 -43 36 -84 223 -377 361
-789 412 -1223 20 -170 19 -467 -1 -620 -8 -66 -17 -121 -19 -124 -4 -3 -101
63 -259 177 l-48 35 16 -29 c9 -16 177 -274 375 -574 198 -300 423 -643 502
-763 78 -119 143 -216 145 -214 2 2 -9 70 -23 153 -22 120 -27 180 -27 309 0
171 11 250 64 471 130 536 151 1038 64 1544 -35 209 -110 478 -171 620 -3 8
-7 17 -8 20 -8 30 -31 80 -37 80 -4 0 -8 8 -8 18 -1 25 -94 209 -113 223 -5 3
-8 9 -8 13 3 20 0 26 -11 20 -8 -5 -9 -2 -5 10 4 10 3 15 -3 11 -6 -3 -10 1
-10 10 0 9 -4 14 -9 10 -5 -3 -13 0 -17 6 -4 8 -3 9 4 5 18 -11 14 8 -6 35
-10 13 -22 32 -25 42 -4 10 -11 16 -16 12 -11 -6 -34 29 -25 37 2 3 -7 13 -20
22 -25 16 -56 13 -56 -6 0 -5 -4 -6 -10 -3 -5 3 -10 1 -10 -4 0 -6 -18 -11
-40 -11 l-40 0 0 -40 0 -40 -80 0 c-64 0 -80 3 -80 15 0 8 -4 15 -10 15 -5 0
-10 -18 -10 -41 0 -24 -4 -38 -10 -34 -5 3 -10 15 -10 26 0 11 -8 23 -17 26
-10 4 -21 11 -25 16 -30 46 -241 267 -254 267 -3 0 -18 14 -34 30 -20 21 -30
26 -30 15z m-270 -155 c0 -5 -2 -10 -4 -10 -3 0 -8 5 -11 10 -3 6 -1 10 4 10
6 0 11 -4 11 -10z m1010 -155 c0 -5 -5 -3 -10 5 -5 8 -10 20 -10 25 0 6 5 3
10 -5 5 -8 10 -19 10 -25z m27 -22 c-3 -10 -5 -4 -5 12 0 17 2 24 5 18 2 -7 2
-21 0 -30z"/>
<path d="M15501 17504 c0 -11 3 -14 6 -6 3 7 2 16 -1 19 -3 4 -6 -2 -5 -13z"/>
<path d="M7085 17500 c3 -5 11 -10 16 -10 6 0 7 5 4 10 -3 6 -11 10 -16 10 -6
0 -7 -4 -4 -10z"/>
<path d="M7124 17432 c0 -26 1 -41 4 -34 3 10 7 10 20 0 15 -11 15 -10 -1 14
-9 15 -14 33 -11 41 3 8 2 17 -3 20 -4 3 -8 -16 -9 -41z"/>
<path d="M6180 17436 c0 -4 9 -16 20 -28 11 -12 20 -17 20 -11 0 5 -9 18 -20
28 -11 10 -20 15 -20 11z"/>
<path d="M13186 17428 c3 -5 10 -6 15 -3 13 9 11 12 -6 12 -8 0 -12 -4 -9 -9z"/>
<path d="M7170 17385 c-7 -9 -11 -18 -8 -20 3 -3 11 1 18 10 7 9 11 18 8 20
-3 3 -11 -1 -18 -10z"/>
<path d="M7198 17374 c-8 -7 23 -84 34 -84 12 0 9 12 -7 34 -18 24 -19 40 -2
30 8 -5 8 -2 -2 9 -15 19 -15 19 -23 11z"/>
<path d="M13256 17351 c-4 -6 -3 -18 2 -27 8 -15 10 -14 16 2 8 20 -8 42 -18
25z"/>
<path d="M7239 17322 c5 -10 18 -25 28 -33 12 -10 11 -5 -6 19 -24 35 -38 43
-22 14z"/>
<path d="M13325 17254 c16 -17 22 -18 28 -7 11 19 -1 37 -17 24 -7 -6 -17 -7
-22 -3 -5 4 0 -2 11 -14z"/>
<path d="M15421 17214 c0 -11 3 -14 6 -6 3 7 2 16 -1 19 -3 4 -6 -2 -5 -13z"/>
<path d="M15402 17160 c0 -14 2 -19 5 -12 2 6 2 18 0 25 -3 6 -5 1 -5 -13z"/>
<path d="M12917 17021 c61 -186 84 -348 84 -600 -1 -321 -56 -693 -196 -1316
-59 -261 -56 -249 -236 -1016 l-124 -527 -135 -4 c-113 -4 -142 -8 -177 -26
-44 -23 -84 -68 -102 -115 l-11 -27 637 2 636 3 82 350 c333 1418 320 1357
310 1485 -37 437 -245 1075 -480 1476 -94 159 -271 393 -309 407 -6 3 3 -39
21 -92z"/>
<path d="M5300 17020 c0 -8 -7 -130 -15 -270 -8 -140 -21 -385 -30 -545 -9
-159 -29 -531 -45 -825 -16 -294 -34 -632 -40 -750 -17 -328 -4 -321 -127 -70
-58 118 -127 260 -153 315 -26 55 -103 213 -170 350 -67 138 -157 322 -200
410 -43 88 -133 273 -200 410 -67 138 -127 261 -133 275 -10 20 -13 -25 -15
-220 -3 -237 5 -483 30 -928 33 -577 -77 -864 -357 -937 -228 -59 -592 69
-875 306 -57 48 -70 56 -56 34 230 -362 547 -599 831 -621 152 -12 279 33 394
141 143 136 225 346 255 657 l11 118 199 -372 c110 -205 257 -479 326 -608 70
-129 157 -293 195 -365 37 -71 71 -134 75 -138 4 -4 10 20 14 55 11 112 115
1220 157 1673 22 242 43 451 46 465 7 30 0 45 178 -370 70 -162 142 -329 160
-370 18 -41 77 -176 130 -300 312 -725 491 -1133 521 -1191 76 -145 214 -273
374 -347 170 -79 290 -93 558 -63 101 10 186 21 188 24 4 4 -51 107 -446 827
-95 173 -213 389 -263 480 -49 91 -178 325 -285 520 -107 195 -259 473 -338
617 -79 145 -208 379 -285 520 -168 305 -408 745 -469 858 -126 235 -140 258
-140 235z"/>
<path d="M15347 16981 c-4 -17 -3 -21 5 -13 5 5 8 16 6 23 -3 8 -7 3 -11 -10z"/>
<path d="M13852 16900 c0 -14 2 -19 5 -12 2 6 2 18 0 25 -3 6 -5 1 -5 -13z"/>
<path d="M15537 16793 c-15 -78 -49 -220 -57 -238 -8 -19 -15 -46 -55 -225 -9
-41 -20 -86 -25 -100 -4 -14 -16 -61 -25 -105 -9 -44 -24 -101 -32 -127 -13
-44 -13 -54 6 -130 25 -103 109 -461 196 -838 36 -157 69 -294 74 -305 5 -12
10 53 14 165 3 102 10 217 16 255 6 39 22 140 36 225 40 250 47 325 47 505 0
185 -21 333 -71 510 -5 17 -17 66 -26 110 -9 44 -20 87 -25 96 -5 9 -12 38
-15 65 -4 27 -11 54 -15 59 -5 6 -11 31 -15 58 -8 53 -20 61 -28 20z"/>
<path d="M16012 16640 c0 -14 2 -19 5 -12 2 6 2 18 0 25 -3 6 -5 1 -5 -13z"/>
<path d="M16553 16575 c0 -8 4 -12 9 -9 5 3 6 10 3 15 -9 13 -12 11 -12 -6z"/>
<path d="M15261 16554 c0 -11 3 -14 6 -6 3 7 2 16 -1 19 -3 4 -6 -2 -5 -13z"/>
<path d="M16046 16558 c3 -5 10 -6 15 -3 13 9 11 12 -6 12 -8 0 -12 -4 -9 -9z"/>
<path d="M16448 16543 c7 -3 16 -2 19 1 4 3 -2 6 -13 5 -11 0 -14 -3 -6 -6z"/>
<path d="M16504 16508 c10 -6 22 -6 26 -2 5 5 -3 10 -18 11 -22 1 -24 0 -8 -9z"/>
<path d="M15230 16491 c0 -7 -5 -9 -12 -5 -7 5 -8 3 -3 -5 5 -9 10 -10 18 -2
6 6 8 14 4 18 -4 3 -7 1 -7 -6z"/>
<path d="M13696 16463 c-6 -14 -5 -15 5 -6 7 7 10 15 7 18 -3 3 -9 -2 -12 -12z"/>
<path d="M16220 16460 c-9 -6 -10 -10 -3 -10 6 0 15 5 18 10 8 12 4 12 -15 0z"/>
<path d="M16147 16409 c7 -7 15 -10 18 -7 3 3 -2 9 -12 12 -14 6 -15 5 -6 -5z"/>
<path d="M13741 16354 c0 -11 3 -14 6 -6 3 7 2 16 -1 19 -3 4 -6 -2 -5 -13z"/>
<path d="M14021 16264 c0 -11 3 -14 6 -6 3 7 2 16 -1 19 -3 4 -6 -2 -5 -13z"/>
<path d="M14032 16220 c0 -14 2 -19 5 -12 2 6 2 18 0 25 -3 6 -5 1 -5 -13z"/>
<path d="M16205 16180 c-3 -5 -1 -10 4 -10 6 0 11 5 11 10 0 6 -2 10 -4 10 -3
0 -8 -4 -11 -10z"/>
<path d="M15157 16137 c-11 -29 -9 -43 4 -30 6 6 9 19 7 29 -3 18 -4 18 -11 1z"/>
<path d="M2621 16094 c0 -11 3 -14 6 -6 3 7 2 16 -1 19 -3 4 -6 -2 -5 -13z"/>
<path d="M2842 16070 c0 -19 2 -27 5 -17 2 9 2 25 0 35 -3 9 -5 1 -5 -18z"/>
<path d="M2807 16069 c4 -13 8 -18 11 -10 2 7 -1 18 -6 23 -8 8 -9 4 -5 -13z"/>
<path d="M2631 16024 c0 -11 6 -29 14 -40 8 -10 15 -14 15 -8 0 5 -4 14 -9 20
-5 5 -11 18 -14 29 -5 20 -5 19 -6 -1z"/>
<path d="M2817 16003 c-4 -3 -7 -13 -6 -22 0 -12 3 -11 9 4 8 18 9 18 10 -5 0
-14 7 -38 15 -55 8 -16 13 -21 10 -10 -2 11 -7 37 -11 58 -6 36 -14 44 -27 30z"/>
<path d="M2593 15925 c0 -27 2 -38 4 -22 2 15 2 37 0 50 -2 12 -4 0 -4 -28z"/>
<path d="M2617 15938 c-2 -7 -1 -22 4 -33 6 -16 8 -14 8 13 1 33 -4 41 -12 20z"/>
<path d="M2720 15938 c0 -11 -8 -18 -20 -18 -17 0 -20 -7 -20 -41 0 -26 -4
-38 -11 -33 -6 3 -9 22 -7 40 3 22 0 34 -8 34 -13 0 -27 -56 -18 -71 3 -5 1
-9 -5 -9 -5 0 -12 10 -14 23 l-4 22 -8 -22 c-4 -13 -12 -20 -19 -16 -6 3 -6 0
2 -8 14 -15 17 -93 3 -85 -5 4 -8 -41 -6 -108 4 -134 14 -213 25 -196 4 7 6
-7 3 -31 -5 -47 32 -232 47 -237 5 -2 7 -9 4 -16 -11 -30 74 -203 134 -271 12
-14 22 -28 22 -31 0 -18 116 -124 187 -170 79 -53 220 -120 230 -110 3 2 -19
40 -48 83 -52 77 -169 300 -169 323 0 6 -5 8 -12 4 -6 -4 -8 -3 -5 3 3 5 -10
57 -29 114 -39 113 -76 268 -94 394 -7 44 -17 86 -23 94 -10 12 -9 13 2 6 11
-6 13 -2 7 21 -4 16 -9 75 -10 132 -2 59 -8 108 -15 115 -6 6 -11 22 -11 36 0
24 0 24 -15 5 -15 -18 -15 -18 -9 9 6 24 3 27 -20 27 -25 0 -26 -3 -26 -53 0
-57 -5 -68 -25 -61 -10 4 -10 14 -3 44 7 26 7 44 -1 57 -10 17 -10 17 -11 1z
m95 -134 c0 -61 -2 -70 -9 -46 -7 25 -1 122 8 122 1 0 2 -34 1 -76z m22 -1
c-3 -10 -5 -4 -5 12 0 17 2 24 5 18 2 -7 2 -21 0 -30z m-200 -80 c-3 -10 -5
-4 -5 12 0 17 2 24 5 18 2 -7 2 -21 0 -30z m200 5 c-3 -7 -5 -2 -5 12 0 14 2
19 5 13 2 -7 2 -19 0 -25z m-220 -60 c-3 -7 -5 -2 -5 12 0 14 2 19 5 13 2 -7
2 -19 0 -25z m20 -10 c-3 -8 -6 -5 -6 6 -1 11 2 17 5 13 3 -3 4 -12 1 -19z"/>
<path d="M16006 15912 c-3 -5 1 -9 9 -9 8 0 12 4 9 9 -3 4 -7 8 -9 8 -2 0 -6
-4 -9 -8z"/>
<path d="M16577 15889 c-15 -17 -24 -35 -21 -40 3 -5 -2 -6 -12 -2 -13 5 -15
2 -10 -14 4 -12 1 -25 -9 -33 -10 -8 -15 -9 -15 -1 0 6 5 11 10 11 6 0 10 5
10 10 0 19 -15 10 -35 -21 -11 -16 -19 -35 -17 -40 1 -6 -3 -7 -9 -3 -9 5 -10
2 -6 -9 4 -11 2 -14 -8 -11 -9 4 -19 -4 -27 -23 -7 -15 -23 -39 -35 -52 -12
-13 -19 -31 -15 -39 3 -9 1 -13 -5 -9 -15 9 -44 -38 -37 -60 4 -13 3 -14 -3
-5 -12 15 -24 -6 -142 -243 -168 -339 -301 -753 -351 -1092 -11 -76 -20 -186
-20 -245 0 -106 7 -142 105 -555 5 -23 6 -23 221 -23 l216 0 -7 46 c-3 25 -13
71 -22 102 -9 31 -22 84 -29 117 -7 33 -25 112 -39 175 -74 332 -79 734 -14
1080 24 129 54 257 79 330 10 30 30 93 45 140 15 47 35 104 46 127 10 24 19
46 19 50 0 6 22 56 52 120 6 11 7 27 3 34 -6 9 -3 11 8 6 16 -6 21 7 20 50 -1
9 5 10 16 3 14 -7 17 -5 16 13 -1 12 4 33 11 47 25 47 45 90 41 90 -1 0 -15
-14 -30 -31z"/>
<path d="M15980 15831 c0 -6 4 -13 10 -16 6 -3 7 1 4 9 -7 18 -14 21 -14 7z"/>
<path d="M15081 15794 c0 -11 3 -14 6 -6 3 7 2 16 -1 19 -3 4 -6 -2 -5 -13z"/>
<path d="M15943 15765 c0 -8 4 -12 9 -9 5 3 6 10 3 15 -9 13 -12 11 -12 -6z"/>
<path d="M15915 15669 c-4 -6 -5 -12 -2 -15 2 -3 7 2 10 11 7 17 1 20 -8 4z"/>
<path d="M15786 15427 c3 -10 9 -15 12 -12 3 3 0 11 -7 18 -10 9 -11 8 -5 -6z"/>
<path d="M14040 15371 c0 -6 4 -13 10 -16 6 -3 7 1 4 9 -7 18 -14 21 -14 7z"/>
<path d="M14057 15321 c-4 -17 -3 -21 5 -13 5 5 8 16 6 23 -3 8 -7 3 -11 -10z"/>
<path d="M14252 15265 c0 -16 2 -22 5 -12 2 9 2 23 0 30 -3 6 -5 -1 -5 -18z"/>
<path d="M15131 15234 c0 -11 3 -14 6 -6 3 7 2 16 -1 19 -3 4 -6 -2 -5 -13z"/>
<path d="M15711 15213 c-1 -6 -4 -20 -7 -30 -5 -17 -5 -17 6 0 6 10 9 23 6 30
-3 9 -5 9 -5 0z"/>
<path d="M14941 15194 c0 -11 3 -14 6 -6 3 7 2 16 -1 19 -3 4 -6 -2 -5 -13z"/>
<path d="M14920 15170 c0 -8 5 -22 10 -30 9 -13 10 -13 10 0 0 8 -5 22 -10 30
-9 13 -10 13 -10 0z"/>
<path d="M14918 15096 c4 -27 6 -28 13 -11 11 29 11 32 -4 38 -10 4 -12 -3 -9
-27z"/>
<path d="M15062 14900 c0 -14 2 -19 5 -12 2 6 2 18 0 25 -3 6 -5 1 -5 -13z"/>
<path d="M15006 14655 c-3 -8 -1 -15 4 -15 6 0 10 7 10 15 0 8 -2 15 -4 15 -2
0 -6 -7 -10 -15z"/>
<path d="M14411 14594 c0 -11 3 -14 6 -6 3 7 2 16 -1 19 -3 4 -6 -2 -5 -13z"/>
<path d="M14431 14534 c0 -11 3 -14 6 -6 3 7 2 16 -1 19 -3 4 -6 -2 -5 -13z"/>
<path d="M14781 14494 c0 -11 3 -14 6 -6 3 7 2 16 -1 19 -3 4 -6 -2 -5 -13z"/>
<path d="M14752 13625 c0 -16 2 -22 5 -12 2 9 2 23 0 30 -3 6 -5 -1 -5 -18z"/>
<path d="M17135 13480 c10 -11 20 -20 23 -20 3 0 -3 9 -13 20 -10 11 -20 20
-23 20 -3 0 3 -9 13 -20z"/>
<path d="M17126 13457 c3 -10 9 -15 12 -12 3 3 0 11 -7 18 -10 9 -11 8 -5 -6z"/>
<path d="M6760 12374 c-105 -28 -178 -88 -222 -182 -31 -65 -31 -196 0 -264
71 -158 259 -234 442 -179 61 19 81 31 130 79 76 75 104 146 98 247 -11 159
-108 270 -266 304 -69 14 -114 13 -182 -5z m200 -133 c115 -58 135 -252 34
-340 -88 -78 -229 -60 -298 37 -66 93 -35 251 57 299 69 36 140 37 207 4z"/>
<path d="M7530 12375 c-134 -38 -219 -132 -241 -264 -17 -107 21 -221 94 -288
114 -102 300 -121 455 -45 l52 25 0 134 0 133 -65 0 -65 0 0 -95 c0 -95 0 -96
-27 -107 -47 -21 -152 -15 -200 10 -77 40 -118 148 -93 242 36 134 206 187
333 104 l38 -25 45 37 c24 20 43 42 41 48 -5 17 -95 74 -135 86 -65 19 -173
21 -232 5z"/>
<path d="M8240 12375 c-106 -30 -166 -79 -218 -179 -35 -68 -38 -196 -5 -268
72 -157 260 -234 441 -179 84 25 159 87 200 165 23 44 27 63 27 141 0 73 -5
100 -24 142 -64 144 -255 224 -421 178z m202 -136 c114 -58 132 -250 33 -338
-75 -65 -179 -66 -264 -3 -98 73 -92 261 10 329 70 46 145 50 221 12z"/>
<path d="M12020 12380 c-118 -3 -207 -7 -197 -8 9 -1 26 -11 37 -22 19 -19 20
-33 20 -288 0 -288 -3 -305 -53 -315 -12 -2 84 -5 214 -6 l237 -1 17 73 c9 39
19 81 21 92 3 11 -7 -1 -20 -27 -41 -76 -74 -92 -189 -96 l-98 -4 3 129 3 128
77 0 c85 -1 103 -10 117 -59 7 -23 9 -3 9 79 0 84 -2 102 -9 78 -14 -49 -42
-63 -126 -63 l-73 0 0 135 0 135 94 0 c106 0 131 -12 152 -71 12 -32 13 -30
13 44 1 68 -1 77 -16 75 -10 -1 -115 -5 -233 -8z"/>
<path d="M12361 12310 c1 -62 2 -69 9 -40 13 56 40 70 131 70 l79 0 0 -284 c0
-297 0 -298 -45 -309 -11 -2 43 -5 120 -5 95 0 131 3 111 8 -16 5 -33 15 -37
22 -5 7 -9 138 -9 291 l0 277 76 0 c87 0 110 -10 129 -53 14 -32 14 -31 15 33
l0 65 -290 0 -290 0 1 -75z"/>
<path d="M12991 12325 c0 -44 3 -54 9 -39 16 41 49 54 132 54 l78 0 0 -277 c0
-153 -4 -284 -9 -291 -4 -7 -21 -17 -37 -22 -20 -5 16 -8 111 -8 77 0 131 3
120 5 -45 11 -45 12 -45 309 l0 284 79 0 c91 0 118 -14 131 -70 7 -29 8 -22 9
40 l1 75 -290 0 -290 0 1 -60z"/>
<path d="M13835 12380 c-121 -3 -211 -7 -199 -8 11 -1 28 -10 37 -20 15 -16
17 -52 17 -293 0 -151 -4 -280 -9 -287 -4 -7 -21 -17 -37 -22 -18 -5 58 -9
211 -9 l241 -1 13 63 c25 122 24 116 5 82 -46 -84 -87 -105 -199 -105 l-85 0
0 130 0 130 63 0 c76 0 107 -15 129 -60 l18 -35 0 110 0 110 -19 -41 c-21 -47
-37 -54 -128 -54 l-63 0 0 135 0 135 93 0 c106 0 133 -14 147 -71 6 -27 8 -19
9 44 1 56 -2 76 -11 75 -7 -1 -112 -5 -233 -8z"/>
<path d="M15911 12375 c-97 -28 -173 -92 -212 -180 -34 -78 -32 -200 6 -283
52 -115 149 -173 303 -180 175 -8 283 45 349 169 25 49 28 64 28 154 0 81 -4
109 -21 146 -55 118 -154 178 -307 185 -63 3 -109 -1 -146 -11z m203 -39 c79
-33 126 -135 126 -275 0 -124 -20 -185 -80 -243 -56 -54 -107 -68 -181 -48
-99 27 -154 130 -154 290 1 138 32 214 109 264 46 30 125 35 180 12z"/>
<path d="M16755 12385 c-5 -2 -28 -9 -51 -14 -91 -24 -180 -112 -205 -205 -6
-22 -11 -72 -11 -111 1 -133 62 -239 170 -292 53 -26 66 -28 177 -28 114 0
123 2 185 31 103 50 110 60 110 159 0 63 4 87 16 99 14 15 7 16 -81 16 -88 0
-95 -1 -81 -16 24 -23 22 -171 -2 -200 -83 -99 -250 -75 -311 45 -44 86 -51
232 -16 330 36 104 102 151 210 151 99 0 160 -37 205 -126 l20 -39 -3 80 -2
79 -60 19 c-55 17 -246 33 -270 22z"/>
<path d="M17491 12375 c-66 -19 -104 -42 -153 -92 -59 -61 -82 -123 -82 -224
0 -77 3 -93 32 -152 37 -74 72 -109 152 -146 50 -23 67 -26 175 -26 148 0 199
19 274 100 63 70 85 138 79 245 -8 135 -67 223 -187 278 -69 32 -208 40 -290
17z m207 -39 c36 -19 65 -52 93 -106 31 -61 39 -221 15 -304 -41 -141 -180
-205 -294 -136 -147 89 -146 446 1 535 49 29 140 34 185 11z"/>
<path d="M2150 12060 l0 -320 235 0 235 0 0 60 0 60 -160 0 -160 0 0 260 0
260 -75 0 -75 0 0 -320z"/>
<path d="M2700 12060 l0 -320 250 0 250 0 0 60 0 60 -175 0 -175 0 0 75 0 75
150 0 150 0 0 55 0 55 -150 0 -150 0 0 70 0 70 170 0 170 0 0 60 0 60 -245 0
-245 0 0 -320z"/>
<path d="M3250 12320 l0 -60 100 0 100 0 0 -260 0 -260 75 0 75 0 0 260 0 260
100 0 100 0 0 60 0 60 -275 0 -275 0 0 -60z"/>
<path d="M3820 12320 l0 -60 105 0 105 0 0 -260 0 -260 70 0 70 0 0 260 0 260
105 0 105 0 0 60 0 60 -280 0 -280 0 0 -60z"/>
<path d="M4460 12060 l0 -320 250 0 251 0 -3 58 -3 57 -172 3 -173 2 0 75 0
75 145 0 145 0 0 55 0 55 -145 0 -145 0 0 70 0 70 165 0 165 0 0 60 0 60 -240
0 -240 0 0 -320z"/>
<path d="M5080 12061 l0 -321 70 0 70 0 0 90 0 91 73 -3 72 -3 59 -87 60 -88
78 0 79 0 -70 102 -70 102 27 16 c73 44 108 120 99 213 -7 82 -43 132 -122
172 -59 29 -63 30 -242 34 l-183 3 0 -321z m345 184 c38 -19 55 -51 55 -106 0
-79 -75 -117 -210 -107 l-45 3 -3 113 -3 112 87 0 c57 0 97 -5 119 -15z"/>
<path d="M6010 12060 l0 -320 235 0 235 0 0 60 0 60 -160 0 -160 0 0 260 0
260 -75 0 -75 0 0 -320z"/>
<path d="M11276 12366 c17 -8 34 -21 38 -31 3 -9 6 -135 6 -279 0 -281 -3
-299 -53 -309 -12 -2 84 -5 214 -6 l237 -1 17 73 c9 39 19 81 21 92 3 11 -7
-1 -20 -27 -41 -76 -74 -92 -188 -96 l-98 -4 0 264 c0 144 3 274 7 287 3 13
19 29 37 37 28 12 17 13 -109 13 -126 0 -137 -1 -109 -13z"/>
<path d="M14230 12362 l35 -17 3 -270 c1 -148 0 -280 -3 -292 -3 -12 -17 -26
-32 -31 -21 -8 5 -10 107 -10 74 0 126 3 115 5 -45 11 -45 12 -45 309 l0 284
45 0 c80 0 111 -27 129 -113 9 -37 -9 -100 -37 -132 -15 -18 -36 -28 -65 -32
-41 -5 -42 -6 -21 -21 11 -8 43 -61 71 -118 75 -156 118 -185 273 -183 65 1
73 3 45 9 -41 10 -77 49 -155 165 -29 45 -65 87 -79 95 -29 15 -34 30 -10 30
32 0 83 41 103 84 53 108 -1 218 -119 245 -25 6 -124 11 -220 11 -173 0 -175
0 -140 -18z"/>
<path d="M15127 12373 c50 -10 53 -27 53 -319 0 -245 -2 -272 -17 -286 -10 -9
-27 -18 -38 -21 -11 -2 87 -5 217 -6 l237 -1 11 43 c6 23 15 58 21 77 14 53
10 69 -7 30 -37 -85 -84 -110 -204 -110 l-90 0 0 264 c0 146 4 276 10 290 6
16 21 29 42 35 24 7 -5 9 -112 9 -80 -1 -135 -3 -123 -5z"/>
<path d="M5575 11380 c-3 -6 1 -7 9 -4 18 7 21 14 7 14 -6 0 -13 -4 -16 -10z"/>
<path d="M13230 11330 c0 -5 5 -10 11 -10 5 0 7 5 4 10 -3 6 -8 10 -11 10 -2
0 -4 -4 -4 -10z"/>
<path d="M5225 11319 c-4 -6 -5 -12 -2 -15 2 -3 7 2 10 11 7 17 1 20 -8 4z"/>
<path d="M14360 11311 c0 -6 4 -13 10 -16 6 -3 7 1 4 9 -7 18 -14 21 -14 7z"/>
<path d="M5155 11290 c10 -11 20 -20 22 -20 2 0 -2 9 -9 20 -7 11 -17 20 -22
20 -5 0 -1 -9 9 -20z"/>
<path d="M6180 11273 c0 -13 5 -23 10 -23 13 0 13 11 0 30 -8 12 -10 11 -10
-7z"/>
<path d="M6660 11273 c0 -13 5 -23 10 -23 13 0 13 11 0 30 -8 12 -10 11 -10
-7z"/>
<path d="M3850 11270 c0 -5 5 -10 11 -10 5 0 7 5 4 10 -3 6 -8 10 -11 10 -2 0
-4 -4 -4 -10z"/>
<path d="M14377 11262 c3 -7 9 -10 12 -5 3 4 10 11 15 15 4 4 -1 6 -12 5 -12
-1 -18 -6 -15 -15z"/>
<path d="M16740 11265 c0 -8 4 -15 10 -15 5 0 7 7 4 15 -4 8 -8 15 -10 15 -2
0 -4 -7 -4 -15z"/>
<path d="M13066 11255 c-9 -26 -7 -32 5 -12 6 10 9 21 6 23 -2 3 -7 -2 -11
-11z"/>
<path d="M15391 11244 c0 -11 3 -14 6 -6 3 7 2 16 -1 19 -3 4 -6 -2 -5 -13z"/>
<path d="M15871 11244 c0 -11 3 -14 6 -6 3 7 2 16 -1 19 -3 4 -6 -2 -5 -13z"/>
<path d="M14401 11243 c-1 -17 16 -25 25 -12 4 7 3 9 -4 5 -5 -3 -13 0 -15 6
-4 9 -6 10 -6 1z"/>
<path d="M3100 11236 c0 -2 7 -7 16 -10 8 -3 12 -2 9 4 -6 10 -25 14 -25 6z"/>
<path d="M7091 11224 c0 -11 3 -14 6 -6 3 7 2 16 -1 19 -3 4 -6 -2 -5 -13z"/>
<path d="M12306 11228 c3 -5 10 -6 15 -3 13 9 11 12 -6 12 -8 0 -12 -4 -9 -9z"/>
<path d="M16427 11227 c4 -7 -1 -8 -13 -3 -15 6 -17 5 -6 -5 10 -11 15 -10 28
2 13 14 13 16 0 16 -8 0 -12 -5 -9 -10z"/>
<path d="M4036 11207 c3 -10 9 -15 12 -12 3 3 0 11 -7 18 -10 9 -11 8 -5 -6z"/>
<path d="M12767 11207 c-3 -8 1 -14 8 -14 7 0 11 6 8 14 -3 7 -6 13 -8 13 -2
0 -5 -6 -8 -13z"/>
<path d="M14430 11210 c-9 -6 -10 -10 -3 -10 6 0 15 5 18 10 8 12 4 12 -15 0z"/>
<path d="M7206 11188 c3 -5 10 -6 15 -3 13 9 11 12 -6 12 -8 0 -12 -4 -9 -9z"/>
<path d="M12586 11188 c3 -5 10 -6 15 -3 13 9 11 12 -6 12 -8 0 -12 -4 -9 -9z"/>
<path d="M4006 11143 c-6 -14 -5 -15 5 -6 7 7 10 15 7 18 -3 3 -9 -2 -12 -12z"/>
<path d="M5769 9266 c76 -125 154 -331 181 -474 5 -30 12 -57 14 -60 2 -4 7
-41 11 -82 4 -41 8 -77 10 -81 12 -19 16 -323 5 -449 -26 -318 -72 -510 -225
-925 -20 -55 -49 -136 -65 -180 -41 -116 -145 -403 -190 -525 -110 -299 -111
-303 -96 -351 22 -69 76 -220 93 -262 20 -46 23 -43 64 83 18 52 34 100 38
105 3 6 6 12 6 15 0 3 8 25 17 50 9 25 45 122 79 215 34 94 73 199 86 235 13
36 30 83 38 105 19 57 66 183 113 305 22 58 61 166 87 240 26 74 57 164 70
200 101 281 145 499 145 720 0 160 -20 289 -65 426 -50 149 -166 377 -251 491
-13 17 -24 37 -24 43 0 6 -4 9 -9 6 -5 -3 -14 8 -21 24 -7 16 -19 35 -26 41
-12 10 -12 15 3 33 17 20 17 20 0 7 -23 -18 -34 -7 -16 16 12 16 12 17 -2 6
-17 -14 -29 -8 -25 10 2 7 1 9 -1 5 -9 -17 -23 -7 -20 14 1 17 -4 23 -20 24
l-23 1 19 -31z m21 14 c0 -5 -2 -10 -4 -10 -3 0 -8 5 -11 10 -3 6 -1 10 4 10
6 0 11 -4 11 -10z"/>
<path d="M14246 9232 c-52 -2 -83 -8 -93 -17 -8 -8 -24 -14 -36 -14 -20 1 -21
2 -2 6 41 10 36 22 -8 20 -25 -1 -41 -5 -35 -8 5 -3 -23 -6 -64 -5 -81 2 -153
-6 -246 -28 -88 -20 -149 -39 -190 -58 -26 -12 -49 -23 -52 -23 -22 -5 -58
-29 -55 -36 3 -4 -5 -11 -17 -15 -26 -8 -98 -65 -98 -77 0 -5 5 -5 12 -1 7 4
8 3 4 -5 -4 -6 -11 -9 -15 -6 -15 8 -42 -31 -35 -51 4 -14 4 -16 -4 -5 -8 11
-15 5 -35 -26 -35 -56 -59 -114 -52 -130 3 -9 0 -11 -7 -7 -8 5 -9 2 -5 -9 3
-9 2 -19 -2 -22 -19 -11 -34 -175 -28 -316 11 -290 41 -403 390 -1446 l292
-873 60 0 c33 0 77 -5 99 -11 21 -6 47 -12 57 -14 24 -5 116 -51 133 -67 8 -7
26 -21 40 -32 14 -10 43 -41 63 -67 20 -27 38 -47 40 -45 2 1 -37 121 -87 266
-147 429 -255 908 -312 1385 -21 174 -18 721 5 860 36 224 89 402 164 546 26
52 47 100 46 107 0 7 1 11 4 8 3 -3 24 23 46 57 23 34 61 82 84 107 45 48 50
57 31 56 -7 -1 -48 -2 -92 -4z m-451 -62 c-3 -5 -12 -10 -18 -10 -7 0 -6 4 3
10 19 12 23 12 15 0z m-140 -30 c-3 -5 -12 -10 -18 -10 -7 0 -6 4 3 10 19 12
23 12 15 0z"/>
<path d="M14870 9236 c0 -2 8 -12 18 -23 9 -11 28 -35 42 -53 14 -18 33 -42
43 -53 9 -11 17 -24 17 -29 0 -5 4 -7 8 -4 5 3 9 0 9 -7 0 -7 19 -41 41 -76
23 -35 42 -70 42 -78 0 -8 5 -11 12 -7 7 4 8 3 4 -4 -4 -7 2 -29 13 -50 27
-49 88 -236 107 -326 99 -472 72 -1034 -82 -1731 -58 -262 -90 -376 -189 -674
-52 -156 -95 -286 -95 -290 0 -3 9 8 19 24 36 55 58 78 70 71 6 -4 9 -2 6 6
-6 16 72 77 130 101 65 27 155 47 215 47 l55 0 223 668 c123 367 225 674 226
682 2 8 8 28 15 44 57 140 164 507 151 520 -6 6 -10 15 -10 21 0 5 4 4 9 -4
13 -20 54 169 55 255 1 40 4 67 7 62 4 -5 6 45 6 111 -1 67 -5 121 -9 121 -4
0 -8 7 -8 16 0 8 5 12 11 8 12 -7 3 35 -11 50 -5 4 -6 25 -4 45 3 28 2 32 -5
16 -8 -17 -10 -16 -10 11 -1 19 -7 34 -16 38 -8 3 -15 10 -15 15 0 6 7 8 16 4
15 -6 15 -4 0 19 -9 13 -14 28 -11 31 3 4 2 5 -1 2 -12 -8 -36 25 -30 41 3 9
-1 25 -9 37 -8 12 -15 17 -15 13 0 -5 -10 10 -23 34 -12 24 -32 48 -42 54 -11
6 -24 17 -28 23 -18 28 -94 72 -116 66 -11 -3 -21 -9 -21 -14 0 -5 12 -6 26
-3 18 5 25 3 20 -4 -3 -6 0 -12 6 -15 7 -2 -2 -4 -20 -3 -27 1 -34 6 -43 34
-6 17 -17 32 -25 32 -9 0 -13 4 -10 9 7 11 -85 41 -219 70 -97 22 -171 29
-370 36 -76 3 -149 7 -162 10 -13 2 -23 2 -23 1z m613 -73 c-7 -2 -21 -2 -30
0 -10 3 -4 5 12 5 17 0 24 -2 18 -5z m44 -25 c-6 -5 8 -6 33 -3 l45 5 -38 -10
c-27 -7 -46 -6 -69 3 l-32 13 37 0 c22 0 32 -3 24 -8z m103 -18 c0 -5 -2 -10
-4 -10 -3 0 -8 5 -11 10 -3 6 -1 10 4 10 6 0 11 -4 11 -10z m179 -101 c14 -24
-3 -26 -25 -4 -9 8 -12 15 -8 15 3 0 0 7 -7 17 -13 15 -12 15 7 3 12 -7 26
-21 33 -31z m20 -36 c29 7 74 -54 51 -68 -6 -4 -10 5 -10 18 0 28 -24 54 -34
38 -7 -11 -76 17 -76 31 0 5 11 1 25 -8 14 -9 34 -14 44 -11z m18 -55 c-3 -8
-6 -5 -6 6 -1 11 2 17 5 13 3 -3 4 -12 1 -19z m23 -40 c0 -13 -23 -5 -28 10
-2 7 2 10 12 6 9 -3 16 -11 16 -16z m64 -28 c-6 -6 -10 -3 -10 10 0 13 4 16
10 10 7 -7 7 -13 0 -20z m12 -117 c-10 -10 -19 5 -10 18 6 11 8 11 12 0 2 -7
1 -15 -2 -18z m-9 -875 c-3 -8 -6 -5 -6 6 -1 11 2 17 5 13 3 -3 4 -12 1 -19z"/>
<path d="M15687 9099 c7 -7 15 -10 18 -7 3 3 -2 9 -12 12 -14 6 -15 5 -6 -5z"/>
<path d="M6008 9065 c5 -29 8 -31 15 -11 3 8 0 19 -7 25 -10 9 -12 6 -8 -14z"/>
<path d="M6205 8796 c10 -14 19 -26 22 -26 7 0 -17 39 -28 46 -6 3 -3 -5 6
-20z"/>
<path d="M6250 8661 c0 -6 4 -13 10 -16 6 -3 7 1 4 9 -7 18 -14 21 -14 7z"/>
<path d="M4481 8605 c-58 -131 -111 -343 -130 -517 -18 -162 -17 -165 28 -178
67 -18 250 -136 329 -213 41 -40 101 -108 133 -152 32 -44 63 -85 68 -91 5 -6
26 -43 47 -82 32 -62 35 -74 23 -89 -12 -17 -12 -17 4 -2 17 14 10 36 -107
360 -68 189 -177 490 -241 669 -65 179 -121 329 -125 334 -5 4 -17 -13 -29
-39z"/>
<path d="M6287 8630 c3 -11 9 -20 15 -20 5 0 4 9 -2 20 -6 11 -12 20 -14 20
-2 0 -2 -9 1 -20z"/>
<path d="M3675 7890 c-3 -6 1 -7 9 -4 18 7 21 14 7 14 -6 0 -13 -4 -16 -10z"/>
<path d="M12884 7765 c44 -204 44 -471 1 -773 -26 -178 -63 -337 -211 -907
-325 -1247 -510 -1808 -670 -2026 l-44 -59 93 0 c309 0 526 84 662 258 55 69
128 208 161 305 80 234 225 892 298 1352 71 448 94 839 62 1035 -31 180 -88
366 -168 539 -42 92 -149 271 -175 292 -14 12 -15 10 -9 -16z"/>
<path d="M16308 7758 c-126 -167 -250 -460 -309 -728 -63 -293 -18 -832 132
-1585 72 -363 175 -782 224 -911 62 -165 163 -314 263 -387 133 -98 315 -147
550 -147 l93 0 -35 46 c-145 190 -323 699 -579 1659 -222 830 -290 1122 -324
1372 -23 172 -23 493 0 617 9 49 15 91 13 93 -2 2 -14 -11 -28 -29z"/>
<path d="M3675 7725 c-114 -17 -175 -30 -250 -50 -33 -10 -75 -19 -93 -22 -18
-3 -35 -9 -38 -15 -3 -5 -12 -4 -20 3 -12 10 -15 10 -12 -2 2 -8 -5 -14 -14
-14 -9 0 -19 -3 -23 -6 -3 -4 38 -7 92 -8 198 -3 393 -25 518 -58 33 -9 67
-17 75 -18 8 -1 33 -10 55 -19 22 -10 50 -19 62 -19 11 -1 19 -5 17 -8 -2 -4
15 -14 38 -24 23 -9 54 -25 70 -36 15 -11 33 -17 38 -14 6 4 9 1 8 -7 -2 -7 5
-12 14 -12 10 1 16 -2 13 -6 -3 -4 12 -19 33 -33 86 -59 189 -175 277 -310 83
-129 162 -302 258 -567 153 -423 344 -952 397 -1100 47 -134 70 -183 70 -151
0 7 5 9 12 5 6 -4 8 -3 5 2 -3 6 3 28 13 51 32 72 42 142 37 263 -2 64 -14
158 -26 214 -21 97 -104 358 -154 486 -74 194 -167 447 -167 458 0 6 -4 12 -9
12 -5 0 -11 13 -14 29 -3 16 -21 69 -40 117 -19 49 -56 148 -83 219 -26 72
-58 147 -71 167 -13 21 -23 44 -23 52 0 8 -3 16 -7 18 -5 2 -23 26 -42 53 -50
74 -187 202 -259 242 -70 39 -161 73 -267 99 -94 23 -367 28 -490 9z"/>
<path d="M3530 7100 c40 -78 60 -184 60 -314 0 -190 -33 -368 -119 -636 -22
-69 -123 -397 -226 -730 -102 -333 -198 -643 -213 -689 -14 -46 -42 -109 -62
-140 -89 -137 -260 -240 -401 -241 -35 0 -36 -1 -52 -57 -9 -32 -19 -66 -22
-75 -7 -17 27 -18 628 -18 l635 0 21 69 c12 38 21 71 21 74 0 2 -14 7 -31 11
-68 13 -119 77 -119 149 0 19 47 187 104 373 57 187 134 438 171 559 91 298
117 346 215 399 132 72 305 1 437 -179 25 -33 43 -51 39 -40 -3 11 -16 70 -30
130 -63 276 -150 538 -245 739 -172 365 -410 571 -737 636 -33 6 -67 14 -77
17 -17 4 -17 2 3 -37z"/>
<path d="M7230 7128 c-25 -5 -83 -21 -130 -35 -354 -106 -590 -393 -771 -936
-50 -150 -143 -510 -137 -529 2 -6 23 15 46 46 181 239 443 250 550 22 19 -39
74 -214 278 -876 49 -161 87 -301 86 -322 -2 -70 -53 -131 -121 -144 -23 -5
-30 -11 -27 -23 3 -9 12 -42 22 -73 l18 -58 634 0 c502 0 633 3 630 13 -35
127 -40 137 -69 137 -157 0 -344 119 -422 267 -20 39 -74 196 -125 363 -50
162 -161 522 -247 800 -86 278 -165 539 -176 580 -37 141 -59 299 -59 419 0
152 19 236 78 354 4 8 2 8 -58 -5z"/>
<path d="M6171 7084 c0 -11 3 -14 6 -6 3 7 2 16 -1 19 -3 4 -6 -2 -5 -13z"/>
<path d="M5126 6803 c-6 -14 -5 -15 5 -6 7 7 10 15 7 18 -3 3 -9 -2 -12 -12z"/>
<path d="M6020 6626 c0 -8 4 -17 9 -20 5 -4 7 3 4 14 -6 23 -13 26 -13 6z"/>
<path d="M6005 6549 c-4 -6 -5 -12 -2 -15 2 -3 7 2 10 11 7 17 1 20 -8 4z"/>
<path d="M5311 6394 c0 -11 3 -14 6 -6 3 7 2 16 -1 19 -3 4 -6 -2 -5 -13z"/>
<path d="M5857 6167 c-3 -8 1 -14 8 -14 7 0 11 6 8 14 -3 7 -6 13 -8 13 -2 0
-5 -6 -8 -13z"/>
<path d="M15426 6041 c-19 -7 -19 -8 0 -13 13 -3 21 0 21 8 0 8 -1 14 -1 13
-1 0 -10 -4 -20 -8z"/>
<path d="M13585 5951 c6 -11 4 -13 -9 -8 -11 5 -15 3 -10 -5 5 -8 2 -9 -10 -5
-10 4 -15 3 -11 -3 3 -5 20 -7 37 -5 49 6 154 -24 200 -57 22 -17 47 -31 55
-32 7 -1 12 -5 11 -8 -5 -10 34 -48 49 -48 7 0 12 -5 11 -12 -2 -7 3 -12 11
-13 8 0 16 -7 18 -15 4 -13 3 -13 -6 0 -6 8 -11 10 -11 4 0 -6 7 -17 15 -24 8
-6 26 -33 41 -58 15 -26 31 -50 36 -53 6 -3 9 -9 8 -13 0 -3 9 -28 20 -54 12
-26 51 -135 88 -242 59 -176 66 -205 70 -293 4 -82 1 -109 -19 -169 -43 -134
-143 -250 -275 -321 l-69 -36 69 -1 c239 -1 425 107 469 272 24 93 23 244 -4
361 -42 185 -122 449 -165 545 -13 29 -24 57 -24 61 0 5 -4 11 -8 13 -5 2 -22
23 -39 48 -46 68 -77 95 -147 128 -106 50 -222 63 -344 37 -21 -5 -38 -3 -49
6 -14 12 -16 12 -8 0z m329 -141 c-6 -6 -10 -3 -10 10 0 13 4 16 10 10 7 -7 7
-13 0 -20z"/>
<path d="M15328 5947 c-20 -7 -40 -15 -44 -19 -4 -5 -17 -8 -28 -8 -12 0 -34
-12 -51 -26 -16 -14 -41 -32 -55 -41 -50 -29 -140 -187 -176 -308 -13 -44 -35
-118 -50 -165 -25 -81 -35 -116 -70 -247 -8 -32 -18 -114 -21 -183 -6 -139 7
-208 53 -282 33 -51 55 -72 113 -108 82 -51 155 -71 276 -76 l110 -5 -66 36
c-136 74 -236 190 -279 324 -19 61 -22 85 -18 169 5 85 13 120 67 282 65 194
141 365 186 418 15 18 23 37 19 43 -4 7 -3 9 3 6 13 -8 45 31 37 45 -4 7 -3 8
4 4 22 -13 34 5 15 21 -17 13 -16 13 4 4 17 -9 27 -7 50 12 15 13 49 32 75 43
31 12 43 22 35 27 -7 5 0 6 16 2 19 -4 26 -2 22 5 -4 6 6 10 26 10 23 0 30 3
23 10 -16 16 -232 22 -276 7z"/>
<path d="M13515 5941 c-3 -5 -2 -12 3 -15 5 -3 9 1 9 9 0 17 -3 19 -12 6z"/>
<path d="M14401 5614 c0 -11 3 -14 6 -6 3 7 2 16 -1 19 -3 4 -6 -2 -5 -13z"/>
<path d="M14782 5530 c0 -14 2 -19 5 -12 2 6 2 18 0 25 -3 6 -5 1 -5 -13z"/>
<path d="M14702 5290 c0 -14 2 -19 5 -12 2 6 2 18 0 25 -3 6 -5 1 -5 -13z"/>
<path d="M5536 5245 c-3 -8 -1 -15 4 -15 6 0 10 7 10 15 0 8 -2 15 -4 15 -2 0
-6 -7 -10 -15z"/>
<path d="M4315 3228 c-22 -5 -151 -8 -288 -6 l-247 3 1 -60 c0 -41 3 -54 8
-40 18 44 48 58 131 63 l80 5 0 -285 c0 -259 -2 -286 -17 -300 -10 -9 -27 -18
-38 -21 -11 -2 43 -5 120 -5 102 -1 133 2 115 9 -13 6 -28 15 -32 22 -4 7 -8
140 -8 296 l0 284 74 -5 c87 -6 121 -24 135 -71 8 -27 9 -20 10 46 1 42 0 77
-1 76 -2 -1 -21 -5 -43 -11z"/>
<path d="M2805 3220 c-115 -3 -200 -7 -188 -8 49 -5 53 -26 53 -312 0 -286 -3
-303 -53 -313 -12 -2 85 -5 215 -6 l236 -1 17 73 c9 39 18 81 21 92 3 11 -8
-4 -25 -32 -43 -73 -85 -93 -196 -93 l-85 0 0 131 0 131 79 -3 c87 -4 117 -20
124 -68 2 -14 4 24 5 84 0 81 -2 102 -9 79 -13 -47 -32 -57 -120 -62 l-79 -5
0 137 0 136 98 0 c110 -1 127 -8 147 -67 l14 -38 1 78 c0 74 -1 77 -22 75 -13
-1 -117 -5 -233 -8z"/>
<path d="M3151 3150 c1 -60 3 -68 9 -41 14 58 37 72 129 78 l81 6 0 -284 c0
-156 -4 -290 -9 -297 -4 -7 -21 -17 -37 -22 -19 -5 18 -8 116 -8 80 0 136 3
125 5 -11 3 -28 12 -37 21 -16 14 -18 41 -18 300 l0 285 81 -6 c86 -6 123 -25
132 -71 2 -11 5 8 6 44 l1 65 -290 0 -290 0 1 -75z"/>
<path d="M4620 3220 c-113 -3 -197 -7 -188 -8 46 -6 48 -17 48 -311 0 -252 -2
-279 -17 -293 -10 -9 -27 -18 -38 -21 -11 -3 88 -4 219 -3 l240 1 12 46 c6 26
14 64 18 85 l6 39 -16 -30 c-44 -82 -90 -105 -204 -105 l-80 0 0 130 0 130 63
0 c91 0 107 -7 128 -54 l19 -41 0 110 0 110 -18 -35 c-22 -45 -53 -60 -129
-60 l-63 0 0 135 0 135 93 0 c105 0 131 -11 146 -63 8 -27 9 -21 10 41 1 69 0
72 -21 70 -13 -1 -115 -5 -228 -8z"/>
<path d="M6683 3212 c-146 -52 -217 -154 -217 -312 0 -70 4 -95 26 -141 62
-134 185 -198 363 -186 137 8 232 64 291 169 27 49 29 61 29 158 0 95 -3 110
-27 156 -32 61 -93 118 -156 146 -69 30 -237 36 -309 10z m192 -23 c56 -16
120 -84 140 -150 19 -66 20 -210 1 -273 -36 -119 -129 -178 -242 -154 -59 13
-116 70 -141 141 -24 72 -24 223 1 296 29 84 104 146 181 150 11 0 38 -4 60
-10z"/>
<path d="M7496 3214 c-102 -32 -181 -112 -207 -209 -6 -21 -11 -71 -11 -110 1
-136 64 -239 180 -293 51 -24 68 -27 167 -26 124 0 191 20 258 75 l37 30 0 82
c0 87 3 97 35 115 16 9 -7 11 -105 11 -69 -1 -116 -4 -105 -6 40 -10 45 -23
45 -108 0 -68 -4 -87 -21 -109 -30 -39 -77 -59 -135 -59 -110 0 -182 72 -204
204 -33 196 37 349 173 379 106 24 206 -21 251 -112 l26 -53 -3 80 -2 80 -55
19 c-76 26 -257 32 -324 10z"/>
<path d="M8273 3215 c-101 -31 -161 -84 -205 -181 -28 -63 -31 -198 -4 -259
61 -144 187 -213 365 -202 110 7 169 28 230 83 64 58 93 125 99 229 6 110 -20
180 -93 252 -42 41 -67 56 -120 72 -78 24 -206 27 -272 6z m182 -26 c58 -16
120 -84 141 -155 24 -83 16 -243 -15 -304 -45 -88 -95 -123 -176 -123 -64 0
-123 30 -158 80 -83 119 -71 359 22 452 54 54 113 70 186 50z"/>
<path d="M15965 3216 c-104 -33 -178 -96 -218 -185 -16 -35 -21 -66 -21 -131
0 -76 3 -92 31 -146 62 -120 165 -178 318 -178 76 0 99 4 147 26 122 56 187
151 196 283 6 101 -22 172 -98 247 -47 46 -70 60 -125 77 -76 24 -169 26 -230
7z m167 -116 c84 -24 138 -101 138 -197 0 -165 -152 -257 -302 -182 -118 60
-133 261 -25 343 58 44 118 55 189 36z"/>
<path d="M16723 3211 c-73 -25 -127 -64 -167 -119 -127 -174 -47 -428 156
-499 100 -34 268 -17 356 37 l32 20 0 130 0 130 -65 0 -64 0 -3 -97 -3 -98
-53 -13 c-192 -47 -336 139 -240 310 58 102 214 127 316 51 l34 -25 41 38 c23
22 44 41 47 42 3 2 -13 19 -34 38 -78 68 -242 94 -353 55z"/>
<path d="M17425 3210 c-79 -25 -154 -91 -192 -168 -24 -49 -28 -68 -27 -142 0
-69 5 -95 24 -135 35 -72 105 -138 173 -164 190 -70 385 -4 464 157 24 49 28
69 28 142 0 72 -4 93 -27 140 -15 30 -35 64 -45 75 -90 101 -255 140 -398 95z
m187 -110 c84 -24 138 -101 138 -197 -1 -106 -54 -179 -150 -203 -57 -14 -117
-2 -170 35 -47 32 -72 82 -78 153 -13 149 114 252 260 212z"/>
<path d="M2057 3213 c50 -10 53 -27 53 -313 0 -286 -3 -303 -53 -313 -12 -2
85 -5 215 -6 l236 -1 17 73 c9 39 18 81 21 92 3 11 -8 -4 -25 -32 -43 -73 -85
-93 -196 -93 l-85 0 0 273 c0 293 3 310 53 320 12 2 -41 4 -118 4 -77 0 -130
-2 -118 -4z"/>
<path d="M5010 3213 c8 -3 23 -12 33 -21 15 -14 17 -41 17 -292 0 -251 -2
-278 -17 -292 -10 -9 -27 -18 -38 -21 -11 -2 45 -5 125 -5 80 0 138 2 130 5
-8 2 -25 9 -37 15 l-23 11 0 284 0 283 45 0 c88 0 129 -45 129 -139 -1 -82
-51 -141 -121 -141 l-27 0 22 -16 c12 -8 47 -64 77 -124 60 -120 92 -152 165
-169 53 -12 199 -14 160 -2 -49 15 -71 37 -145 142 -42 59 -88 115 -102 125
l-27 17 32 11 c114 39 149 201 61 283 -48 44 -98 53 -293 52 -99 0 -174 -3
-166 -6z"/>
<path d="M5920 3213 c8 -3 23 -12 33 -21 15 -14 17 -41 17 -292 0 -251 -2
-278 -17 -292 -10 -9 -27 -18 -38 -21 -11 -2 87 -5 217 -6 217 -1 237 0 242
17 7 25 36 152 36 160 0 4 -10 -12 -21 -36 -12 -24 -37 -55 -57 -70 -32 -24
-45 -27 -134 -30 l-98 -4 0 269 c0 288 4 311 50 324 14 4 -36 7 -110 7 -74 0
-128 -2 -120 -5z"/>
<path d="M11360 2900 l0 -320 235 0 235 0 0 60 0 60 -160 0 -160 0 0 260 0
260 -75 0 -75 0 0 -320z"/>
<path d="M11910 2900 l0 -320 250 0 250 0 0 60 0 60 -175 0 -175 0 0 75 0 75
150 0 150 0 0 55 0 55 -150 0 -150 0 0 70 0 70 168 2 167 3 3 58 3 57 -246 0
-245 0 0 -320z"/>
<path d="M12460 3160 l0 -60 100 0 100 0 0 -260 0 -260 75 0 75 0 0 260 0 260
100 0 100 0 0 60 0 60 -275 0 -275 0 0 -60z"/>
<path d="M13032 3163 l3 -58 103 -3 102 -3 0 -259 0 -260 70 0 70 0 0 260 0
260 105 0 105 0 0 60 0 60 -280 0 -281 0 3 -57z"/>
<path d="M13670 2900 l0 -320 245 0 245 0 0 60 0 60 -175 0 -175 0 0 75 0 75
150 0 150 0 0 55 0 55 -150 0 -150 0 0 70 0 70 170 0 170 0 0 60 0 60 -240 0
-240 0 0 -320z"/>
<path d="M14290 2900 l0 -320 70 0 70 0 0 90 0 91 73 -3 72 -3 59 -87 60 -88
78 0 79 0 -47 68 c-26 37 -59 82 -73 101 l-25 34 25 16 c104 66 136 189 79
301 -47 93 -128 120 -357 120 l-163 0 0 -320z m345 188 c15 -7 33 -24 41 -39
29 -57 9 -134 -41 -157 -14 -7 -66 -12 -115 -12 l-90 0 0 110 0 110 90 0 c49
0 101 -5 115 -12z"/>
<path d="M15220 2900 l0 -320 235 0 235 0 0 60 0 60 -162 0 -163 0 0 257 0
258 -72 3 -73 3 0 -321z"/>
<path d="M6665 2220 c-3 -5 -1 -10 4 -10 6 0 11 5 11 10 0 6 -2 10 -4 10 -3 0
-8 -4 -11 -10z"/>
<path d="M16735 2220 c-3 -5 -1 -10 4 -10 6 0 11 5 11 10 0 6 -2 10 -4 10 -3
0 -8 -4 -11 -10z"/>
<path d="M14440 2190 c0 -5 5 -10 11 -10 5 0 7 5 4 10 -3 6 -8 10 -11 10 -2 0
-4 -4 -4 -10z"/>
<path d="M7253 2166 c0 -8 5 -12 10 -9 7 4 8 -1 3 -13 -6 -15 -5 -17 5 -6 11
10 10 15 -2 28 -14 13 -16 13 -16 0z"/>
<path d="M14391 2126 c-18 -19 -20 -24 -7 -29 10 -4 13 -1 9 9 -3 7 -1 14 5
14 5 0 12 7 16 15 8 21 3 19 -23 -9z"/>
<path d="M3846 2115 c4 -8 8 -15 10 -15 2 0 4 7 4 15 0 8 -4 15 -10 15 -5 0
-7 -7 -4 -15z"/>
<path d="M6181 2104 c0 -11 3 -14 6 -6 3 7 2 16 -1 19 -3 4 -6 -2 -5 -13z"/>
<path d="M6361 2104 c0 -11 3 -14 6 -6 3 7 2 16 -1 19 -3 4 -6 -2 -5 -13z"/>
<path d="M12228 2113 c7 -3 16 -2 19 1 4 3 -2 6 -13 5 -11 0 -14 -3 -6 -6z"/>
<path d="M13056 2102 c-3 -5 -1 -22 4 -38 8 -28 8 -28 7 8 -2 40 -3 43 -11 30z"/>
<path d="M13230 2096 c0 -2 7 -7 16 -10 8 -3 12 -2 9 4 -6 10 -25 14 -25 6z"/>
<path d="M16404 2069 c-3 -6 -1 -16 5 -22 9 -9 10 -7 5 7 -6 15 -4 17 6 11 9
-5 11 -4 6 3 -9 15 -13 15 -22 1z"/>
<path d="M14420 2056 c0 -2 8 -10 18 -17 15 -13 16 -12 3 4 -13 16 -21 21 -21
13z"/>
<path d="M5246 2017 c3 -10 9 -15 12 -12 3 3 0 11 -7 18 -10 9 -11 8 -5 -6z"/>
<path d="M12238 1973 c7 -3 16 -2 19 1 4 3 -2 6 -13 5 -11 0 -14 -3 -6 -6z"/>
</g>
</svg>
